<?xml version="1.0" encoding="UTF-8"?>
<!DOCTYPE svg PUBLIC "-//W3C//DTD SVG 1.1//EN" "http://www.w3.org/Graphics/SVG/1.1/DTD/svg11.dtd">
<!-- Creator: CorelDRAW 2018 (64 Bit) -->
<svg xmlns="http://www.w3.org/2000/svg" xml:space="preserve" width="200mm" height="200mm" version="1.1" style="shape-rendering:geometricPrecision; text-rendering:geometricPrecision; image-rendering:optimizeQuality; fill-rule:evenodd; clip-rule:evenodd"
viewBox="0 0 20000 20000"
 xmlns:xlink="http://www.w3.org/1999/xlink">
 <defs>
  <style type="text/css">
   <![CDATA[
    .fil1 {fill:#FEFEFE;fill-rule:nonzero}
    .fil0 {fill:#52565E;fill-rule:nonzero}
   ]]>
  </style>
 </defs>
 <g id="Camada_x0020_1">
  <metadata id="CorelCorpID_0Corel-Layer"/>
  <g id="_2456900611056">
   <path class="fil0" d="M16085.25 9994.66c0,3187.51 -2449.08,5807.82 -5558.39,6058.08 -171.23,31.28 -346.58,31.28 -517.81,31.28 -454.42,0 -895.66,-45.28 -1318.8,-139.12 -2732.27,-616.59 -4775.51,-3049.21 -4775.51,-5950.24 0,-3360.39 2735.57,-6078.67 6094.31,-6078.67 3360.39,0 6076.2,2718.28 6076.2,6078.67z"/>
   <path class="fil1" d="M10700.56 8720.31c93.02,-109.49 280.72,-189.34 549.09,-189.34 250.26,0 548.26,34.57 831.45,113.6l237.09 -1275.99c-487.35,-170.41 -988.69,-218.98 -1508.14,-218.98 -519.46,0 -926.95,80.68 -1255.42,266.73 -331.76,187.69 -551.56,394.32 -675.04,694.8 -127.6,264.25 -189.34,720.31 -189.34,1285.87l0 501.34 -1006.8 0 0 1459.57 1006.8 0 0 4586.99c423.14,93.84 864.38,139.12 1318.8,139.12 171.23,0 346.58,0 517.81,-31.28l0 -4694.83 1333.62 0 0 -1459.57 -1333.62 0 0 -470.88c0,-359.75 47.74,-582.02 173.7,-707.15z"/>
  </g>
 </g>
</svg>
