<?xml version="1.0" encoding="UTF-8"?>
<!DOCTYPE svg PUBLIC "-//W3C//DTD SVG 1.1//EN" "http://www.w3.org/Graphics/SVG/1.1/DTD/svg11.dtd">
<!-- Creator: CorelDRAW 2018 (64 Bit) -->
<svg xmlns="http://www.w3.org/2000/svg" xml:space="preserve" width="200mm" height="200mm" version="1.1" style="shape-rendering:geometricPrecision; text-rendering:geometricPrecision; image-rendering:optimizeQuality; fill-rule:evenodd; clip-rule:evenodd"
viewBox="0 0 20000 20000"
 xmlns:xlink="http://www.w3.org/1999/xlink">
 <defs>
  <style type="text/css">
   <![CDATA[
    .fil0 {fill:#52565E}
   ]]>
  </style>
 </defs>
 <g id="Camada_x0020_1">
  <metadata id="CorelCorpID_0Corel-Layer"/>
  <g id="_2456979879664">
   <path class="fil0" d="M3763.18 9880.45l0 545.72c0,2006.04 1203.97,3776.12 2644.56,4839.6 297.3,219.47 1314.1,812.5 1760.18,812.5 441.49,0 311.85,-684.08 311.85,-1364.3 0,-156.31 -108.04,-103.94 -268.35,-78 -673.25,108.94 -1177.25,20.42 -1632.97,-437.45 -265.32,-266.58 -341.01,-736.46 -659.88,-1055.23 -37.58,-37.58 -790.05,-534.25 -362.32,-534.25 1122.89,0 922.93,853.19 1714.29,1209.22 325.42,146.41 823.91,127.7 1106.78,-25.31 172.56,-93.35 95.76,-204.82 218.76,-482.89 73.37,-165.85 178.03,-285.59 273.48,-428.15 -682.91,0 -1626.81,-347.96 -2096.28,-827.22 -238.03,-242.99 -433.62,-585.34 -550.11,-931.14 -309.33,-918.18 -289.93,-2028.22 313.9,-2797.07 266.28,-339.04 32.68,44.23 32.68,-1057.7 0,-195.83 85.79,-779.6 233.87,-779.6 515.76,0 1028.25,298.73 1376.58,494.49 355.11,199.59 106.36,187.98 672.93,73.78 683.9,-137.83 1575.09,-145.63 2261.23,-6.5 92.47,18.75 320.66,81.12 382.21,86.1 224.52,18.17 877.38,-647.87 1699.8,-647.87 164.63,0 219.7,598.29 246.79,808.33 32.66,253.33 -23.89,646.96 -129.86,867.8 380.44,254.76 662.66,1111.69 662.66,1676.15 0,1371.89 -494.69,2318.41 -1630.61,2774.13 -267.09,107.14 -838.05,266.32 -1214.93,266.32 132.42,197.74 239.81,292.9 327.09,569.45 110.22,349.24 115.4,1120.89 102.96,1536.74 -24.09,805.36 -324.49,1713.68 1652.95,522.51 150.04,-90.37 241.68,-149.87 381.06,-242.6 130.25,-86.66 229.88,-172.88 351.48,-272.2 138.44,-113.09 205.05,-163.22 332.18,-291.5 1099.21,-1109.19 1958.67,-2575.56 1958.67,-4239.17 0,-1499.68 -154.88,-2235.69 -845.24,-3481.53 -944.1,-1703.72 -3087.95,-3067.11 -5079.74,-3067.11 -871.47,0 -1034.11,-23.46 -1910.12,194.79 -536.28,133.61 -657.02,222.52 -1086.18,395.07 -151.13,60.77 -330.18,169.83 -480.67,259.94 -1767.29,1058.14 -3071.68,3046.41 -3071.68,5114.15z"/>
   <path class="fil0" d="M7154.44 13934.37c9.68,116.27 28.03,194.89 155.92,194.89 63.8,0 116.95,-23.33 116.95,-77.95 0,-158.93 -165.03,-158.8 -272.87,-116.94z"/>
   <path class="fil0" d="M7661.18 14051.31c15.88,145.09 -14.58,65.7 40.39,115.53 30.44,27.6 225.51,158.58 232.48,-154.51 -65.64,0 -232.18,-10.66 -272.87,38.98z"/>
   <path class="fil0" d="M6720.01 13734.78c216.58,319.67 456.04,84.81 83.61,-112.26l-83.61 112.26z"/>
   <path class="fil0" d="M8128.95 14090.29c167.76,94.25 234.19,13.02 311.84,-38.98 -132.35,-197.64 -268.49,-142.09 -311.84,38.98z"/>
   <path class="fil0" d="M6452.8 13388.65c0,121.91 69.96,110.43 155.92,155.92l70.16 -85.76c-60.14,-120.6 -30.04,-145.16 -187.1,-187.11 -26.72,47.56 -38.98,41.7 -38.98,116.95z"/>
   <path class="fil0" d="M6374.84 13193.75c0.62,-0.75 38.98,-72.72 38.98,-77.97 0,-127.89 -78.63,-146.24 -194.9,-155.91 4.04,181.26 4.76,193.52 155.92,233.88z"/>
   <path class="fil0" d="M6140.96 12803.95c-103.47,-49.65 -41.71,-35.57 -194.9,-38.99 37.71,141.23 135.12,262.87 194.9,38.99z"/>
  </g>
 </g>
</svg>
