<?xml version="1.0" encoding="UTF-8"?>
<!DOCTYPE svg PUBLIC "-//W3C//DTD SVG 1.1//EN" "http://www.w3.org/Graphics/SVG/1.1/DTD/svg11.dtd">
<!-- Creator: CorelDRAW 2018 (64 Bit) -->
<svg xmlns="http://www.w3.org/2000/svg" xml:space="preserve" width="200mm" height="200mm" version="1.1" style="shape-rendering:geometricPrecision; text-rendering:geometricPrecision; image-rendering:optimizeQuality; fill-rule:evenodd; clip-rule:evenodd"
viewBox="0 0 20000 20000"
 xmlns:xlink="http://www.w3.org/1999/xlink">
 <defs>
  <style type="text/css">
   <![CDATA[
    .fil1 {fill:#FEFEFE}
    .fil0 {fill:#52565E;fill-rule:nonzero}
   ]]>
  </style>
 </defs>
 <g id="Camada_x0020_1">
  <metadata id="CorelCorpID_0Corel-Layer"/>
  <g id="_2456992951536">
   <path class="fil0" d="M16080.69 10001.64c0,3358.33 -2721.55,6082.34 -6083.16,6082.34 -3355.04,0 -6078.23,-2724.01 -6078.23,-6082.34 0,-3358.32 2723.19,-6085.62 6078.23,-6085.62 3361.61,0 6083.16,2727.3 6083.16,6085.62z"/>
   <path class="fil1" d="M12537.25 12144.82c-4.93,306.05 -84.74,393.25 -390.79,393.25 -716.58,0 -1433.99,0 -2151.4,0 -711.65,0 -1427.41,0 -2145.64,0 -300.29,0 -385.03,-87.2 -385.03,-393.25 0,-788.17 3.29,-1593.6 -11.52,-2392.46 0,-227.07 62.52,-278.08 272.32,-269.03 300.29,19.75 306.05,8.23 271.49,301.12 -116.82,1016.87 586.6,1999.19 1587.02,2195.82 1032.51,198.28 2064.2,-419.58 2347.21,-1408.49 84.74,-309.34 110.24,-638.42 45.25,-944.47 -22.21,-112.72 5.76,-135.75 107.78,-135.75 453.31,-33.73 453.31,-41.96 453.31,428.63 0,733.87 0,1481.71 0,2224.63zm-2533.14 -3418.39c685.32,0 1275.21,591.54 1263.69,1275.21 -5.76,700.96 -589.89,1280.97 -1286.73,1270.28 -691.9,-17.28 -1275.21,-598.94 -1258.75,-1287.55 17.28,-688.62 595.65,-1257.94 1281.79,-1257.94zm1881.55 -1267.8c651.59,0 651.59,0 651.59,652.41 0,637.61 0,637.61 -640.07,637.61 -646.66,0 -646.66,0 -646.66,-645.84 0,-644.18 0,-644.18 635.14,-644.18zm533.12 -738.8c-1610.05,0 -3225.87,0 -4835.92,0 -575.9,0 -872.9,300.29 -872.9,878.66 0,796.39 0,1596.07 0,2403.15 0,799.68 0,1613.35 0,2420.43 0,555.33 306.05,862.21 844.93,862.21 1626.5,0 3242.32,0 4863.89,0 561.09,0 869.61,-306.88 869.61,-871.26 0,-1611.7 0,-3218.46 0,-4835.1 0,-557.8 -308.52,-858.09 -869.61,-858.09z"/>
  </g>
 </g>
</svg>
