<?xml version="1.0" encoding="UTF-8"?>
<!DOCTYPE svg PUBLIC "-//W3C//DTD SVG 1.1//EN" "http://www.w3.org/Graphics/SVG/1.1/DTD/svg11.dtd">
<!-- Creator: CorelDRAW 2018 (64 Bit) -->
<svg xmlns="http://www.w3.org/2000/svg" xml:space="preserve" width="200mm" height="200mm" version="1.1" style="shape-rendering:geometricPrecision; text-rendering:geometricPrecision; image-rendering:optimizeQuality; fill-rule:evenodd; clip-rule:evenodd"
viewBox="0 0 20000 20000"
 xmlns:xlink="http://www.w3.org/1999/xlink">
 <defs>
  <style type="text/css">
   <![CDATA[
    .fil0 {fill:#52565E;fill-rule:nonzero}
    .fil1 {fill:white;fill-rule:nonzero}
   ]]>
  </style>
 </defs>
 <g id="Camada_x0020_1">
  <metadata id="CorelCorpID_0Corel-Layer"/>
  <g id="_2456909131440">
   <path class="fil0" d="M16085.25 9994.66c0,3187.51 -2449.08,5807.82 -5558.39,6058.08 -171.23,31.28 -346.58,31.28 -517.81,31.28 -454.41,0 -895.66,-45.28 -1318.8,-139.12 -2732.27,-616.59 -4775.5,-3049.21 -4775.5,-5950.24 0,-3360.39 2735.56,-6078.67 6094.3,-6078.67 3360.39,0 6076.2,2718.28 6076.2,6078.67z"/>
   <g>
    <path class="fil1" d="M7166.95 6277.93c493.9,0 895.42,401.82 895.42,896.72 0,494.53 -401.52,895.35 -895.42,895.35 -495.36,0 -895.65,-400.82 -895.65,-895.35 0,-494.9 400.29,-896.72 895.65,-896.72zm-773.07 2471.71l1545.73 0 0 4972.46 -1545.73 0 0 -4972.46z"/>
    <path class="fil1" d="M8908.79 8749.64l1482.63 0 0 680.3 21.26 0c206.11,-391.34 710.36,-803.05 1462.02,-803.05 1565.1,0 1854.06,1029.47 1854.06,2367.98l0 2727.23 -1544.85 0 0 -2418.09c0,-576.55 -9.96,-1318.71 -803.41,-1318.71 -803.97,0 -926.79,628.89 -926.79,1277.38l0 2459.42 -1544.92 0 0 -4972.46z"/>
   </g>
  </g>
 </g>
</svg>
